<svg width="168" height="60" viewBox="0 0 168 60" fill="none" xmlns="http://www.w3.org/2000/svg">
<g clip-path="url(#clip0)">
<path d="M165.769 50.2583C166.438 50.7011 166.884 51.1439 167.331 52.0295C167.777 52.9151 168 53.8007 168 54.9077C168 56.4575 167.554 57.7859 166.661 58.6716C165.769 59.5572 164.43 60 162.869 60H158.406C156.845 60 155.506 59.5572 154.614 58.6716C153.721 57.7859 153.275 56.6789 153.275 55.1291C153.275 53.5793 153.721 52.2509 154.39 51.5867C155.283 50.7011 156.398 50.4797 157.737 50.2583V52.9151C156.845 52.9151 156.398 53.1365 155.952 53.3579C155.506 53.8007 155.283 54.2435 155.283 54.9077C155.283 55.5719 155.506 56.0147 155.952 56.4575C156.398 56.9003 157.068 57.1217 158.183 57.1217H162.645C163.761 57.1217 164.43 56.9003 164.876 56.4575C165.323 56.0147 165.546 55.5719 165.546 54.6863C165.546 54.0221 165.546 53.8007 165.323 53.3579C165.1 53.1365 164.876 52.9151 164.653 52.6937H161.976V54.6863H159.968V50.0369H165.769V50.2583Z" fill="white"/>
<path d="M159.745 44.5019V42.7307C159.745 42.0665 159.522 41.6237 159.299 41.4023C158.853 41.1809 158.406 40.9595 157.737 40.9595C157.068 40.9595 156.622 41.1809 156.175 41.4023C155.729 41.6237 155.506 42.0665 155.506 42.7307V44.5019H159.745ZM161.976 44.5019H167.777V47.3801H153.275V42.7307C153.275 41.4023 153.721 40.2953 154.39 39.4096C155.06 38.524 156.175 38.3026 157.514 38.3026C158.183 38.3026 158.853 38.524 159.522 38.7454C159.968 39.1882 160.414 39.631 160.861 40.2953C161.084 39.631 161.53 38.9668 162.199 38.7454C162.869 38.524 163.538 38.3026 164.43 38.3026H165.546C165.992 38.3026 166.438 38.3026 166.884 38.0812C167.331 38.0812 167.777 37.8598 167.777 37.6384H168V40.5167C167.777 40.7381 167.554 40.9595 166.884 40.9595C166.438 40.9595 165.992 40.9595 165.323 40.9595H164.43C163.761 40.9595 163.092 41.1809 162.645 41.4023C162.199 41.6237 161.976 42.0665 161.976 42.7307V44.5019Z" fill="white"/>
<path d="M158.629 28.118C157.514 28.118 156.845 28.3394 156.175 28.7822C155.729 29.225 155.283 29.6678 155.283 30.5534C155.283 31.2176 155.506 31.8818 156.175 32.1032C156.622 32.5461 157.514 32.5461 158.629 32.5461H162.645C163.761 32.5461 164.43 32.3247 165.1 31.8818C165.546 31.439 165.992 30.9962 165.992 30.332C165.992 29.6678 165.769 29.0036 165.1 28.7822C164.653 28.3394 163.761 28.118 162.645 28.118H158.629ZM162.645 25.4612C164.43 25.4612 165.769 25.904 166.661 26.7896C167.554 27.6752 168 29.0036 168 30.332C168 31.6604 167.554 32.9889 166.661 33.8745C165.769 34.7601 164.43 35.2029 162.645 35.2029H158.629C156.845 35.2029 155.506 34.7601 154.614 33.8745C153.721 32.9889 153.275 31.6604 153.275 30.332C153.275 28.7822 153.721 27.6752 154.614 26.7896C155.506 25.904 156.845 25.4612 158.629 25.4612H162.645Z" fill="white"/>
<path d="M153.275 13.0627H163.092C164.653 13.0627 165.769 13.5055 166.661 14.3912C167.554 15.2768 168 16.3838 168 17.9336C168 19.4834 167.554 20.5904 166.661 21.476C165.769 22.3616 164.653 22.8044 163.092 22.8044H153.275V20.1476H163.092C163.984 20.1476 164.653 19.9262 165.1 19.7048C165.546 19.262 165.769 18.8192 165.769 18.155C165.769 17.4908 165.546 17.048 165.1 16.6052C164.653 16.1624 163.984 16.1624 163.092 16.1624H153.275V13.0627Z" fill="white"/>
<path d="M160.414 7.52778V5.31375C160.414 4.64955 160.191 4.20674 159.745 3.98534C159.299 3.76394 158.629 3.54254 157.96 3.54254C157.291 3.54254 156.622 3.76394 156.175 3.98534C155.729 4.20674 155.506 4.64955 155.506 5.31375V7.52778H160.414ZM162.645 7.52778H167.777V10.406H153.275V5.31375C153.275 3.98534 153.721 2.65693 154.614 1.99272C155.506 1.10711 156.622 0.664307 157.96 0.664307C159.299 0.664307 160.414 1.10711 161.307 1.99272C162.199 2.87833 162.645 3.98534 162.645 5.31375V7.52778Z" fill="white"/>
<path d="M45.9602 36.9742V23.9114H29.6733V0H16.51V23.9114H0V36.9742H16.51V41.6236C16.51 51.8081 24.7649 60 35.0279 60H45.9602V46.9373H35.0279C32.1275 46.9373 29.6733 44.5018 29.6733 41.6236V36.9742H45.9602Z" fill="white"/>
<path d="M123.825 13.9482H142.12V0.885498H123.825C111.554 0.885498 101.291 10.8486 101.291 23.2471V26.7896V37.8597C101.291 42.9519 97.0518 47.1586 91.9203 47.1586H76.9721C71.8406 47.1586 67.6016 42.9519 67.6016 37.8597V23.2471C67.6016 18.1549 71.8406 13.9482 76.9721 13.9482H95.2669V0.885498H76.9721C64.7012 0.885498 54.4382 10.8486 54.4382 23.2471V37.8597C54.4382 50.0368 64.4781 60.2213 76.9721 60.2213H91.9203C98.1673 60.2213 103.745 57.7859 107.761 53.8006C111.777 57.7859 117.355 60.2213 123.602 60.2213H141.896V47.1586H123.602C118.47 47.1586 114.231 42.9519 114.231 37.8597V26.7896V23.2471C114.454 18.1549 118.693 13.9482 123.825 13.9482Z" fill="white"/>
<path d="M83.8885 23.9114H45.9602V36.9741H83.8885V23.9114Z" fill="#80C1EE"/>
<g clip-path="url(#clip1)">
<path d="M165.769 50.2583C166.438 50.7011 166.884 51.1439 167.331 52.0295C167.777 52.9151 168 53.8007 168 54.9077C168 56.4575 167.554 57.7859 166.661 58.6716C165.769 59.5572 164.43 60 162.869 60H158.406C156.845 60 155.506 59.5572 154.614 58.6716C153.721 57.7859 153.275 56.6789 153.275 55.1291C153.275 53.5793 153.721 52.2509 154.39 51.5867C155.283 50.7011 156.398 50.4797 157.737 50.2583V52.9151C156.845 52.9151 156.398 53.1365 155.952 53.3579C155.506 53.8007 155.283 54.2435 155.283 54.9077C155.283 55.5719 155.506 56.0147 155.952 56.4575C156.398 56.9003 157.068 57.1217 158.183 57.1217H162.645C163.761 57.1217 164.43 56.9003 164.876 56.4575C165.323 56.0147 165.546 55.5719 165.546 54.6863C165.546 54.0221 165.546 53.8007 165.323 53.3579C165.1 53.1365 164.876 52.9151 164.653 52.6937H161.976V54.6863H159.968V50.0369H165.769V50.2583Z" fill="white"/>
<path d="M159.745 44.5019V42.7307C159.745 42.0665 159.522 41.6237 159.299 41.4023C158.853 41.1809 158.406 40.9595 157.737 40.9595C157.068 40.9595 156.622 41.1809 156.175 41.4023C155.729 41.6237 155.506 42.0665 155.506 42.7307V44.5019H159.745ZM161.976 44.5019H167.777V47.3801H153.275V42.7307C153.275 41.4023 153.721 40.2953 154.39 39.4096C155.06 38.524 156.175 38.3026 157.514 38.3026C158.183 38.3026 158.853 38.524 159.522 38.7454C159.968 39.1882 160.414 39.631 160.861 40.2953C161.084 39.631 161.53 38.9668 162.199 38.7454C162.869 38.524 163.538 38.3026 164.43 38.3026H165.546C165.992 38.3026 166.438 38.3026 166.884 38.0812C167.331 38.0812 167.777 37.8598 167.777 37.6384H168V40.5167C167.777 40.7381 167.554 40.9595 166.884 40.9595C166.438 40.9595 165.992 40.9595 165.323 40.9595H164.43C163.761 40.9595 163.092 41.1809 162.645 41.4023C162.199 41.6237 161.976 42.0665 161.976 42.7307V44.5019Z" fill="white"/>
<path d="M158.629 28.118C157.514 28.118 156.845 28.3394 156.175 28.7822C155.729 29.225 155.283 29.6678 155.283 30.5534C155.283 31.2176 155.506 31.8818 156.175 32.1032C156.622 32.5461 157.514 32.5461 158.629 32.5461H162.645C163.761 32.5461 164.43 32.3247 165.1 31.8818C165.546 31.439 165.992 30.9962 165.992 30.332C165.992 29.6678 165.769 29.0036 165.1 28.7822C164.653 28.3394 163.761 28.118 162.645 28.118H158.629ZM162.645 25.4612C164.43 25.4612 165.769 25.904 166.661 26.7896C167.554 27.6752 168 29.0036 168 30.332C168 31.6604 167.554 32.9889 166.661 33.8745C165.769 34.7601 164.43 35.2029 162.645 35.2029H158.629C156.845 35.2029 155.506 34.7601 154.614 33.8745C153.721 32.9889 153.275 31.6604 153.275 30.332C153.275 28.7822 153.721 27.6752 154.614 26.7896C155.506 25.904 156.845 25.4612 158.629 25.4612H162.645Z" fill="white"/>
<path d="M153.275 13.0627H163.092C164.653 13.0627 165.769 13.5055 166.661 14.3912C167.554 15.2768 168 16.3838 168 17.9336C168 19.4834 167.554 20.5904 166.661 21.476C165.769 22.3616 164.653 22.8044 163.092 22.8044H153.275V20.1476H163.092C163.984 20.1476 164.653 19.9262 165.1 19.7048C165.546 19.262 165.769 18.8192 165.769 18.155C165.769 17.4908 165.546 17.048 165.1 16.6052C164.653 16.1624 163.984 16.1624 163.092 16.1624H153.275V13.0627Z" fill="white"/>
<path d="M160.414 7.52778V5.31375C160.414 4.64955 160.191 4.20674 159.745 3.98534C159.299 3.76394 158.629 3.54254 157.96 3.54254C157.291 3.54254 156.622 3.76394 156.175 3.98534C155.729 4.20674 155.506 4.64955 155.506 5.31375V7.52778H160.414ZM162.645 7.52778H167.777V10.406H153.275V5.31375C153.275 3.98534 153.721 2.65693 154.614 1.99272C155.506 1.10711 156.622 0.664307 157.96 0.664307C159.299 0.664307 160.414 1.10711 161.307 1.99272C162.199 2.87833 162.645 3.98534 162.645 5.31375V7.52778Z" fill="white"/>
<path d="M45.9602 36.9742V23.9114H29.6733V0H16.51V23.9114H0V36.9742H16.51V41.6236C16.51 51.8081 24.7649 60 35.0279 60H45.9602V46.9373H35.0279C32.1275 46.9373 29.6733 44.5018 29.6733 41.6236V36.9742H45.9602Z" fill="white"/>
<path d="M123.825 13.9482H142.12V0.885498H123.825C111.554 0.885498 101.291 10.8486 101.291 23.2471V26.7896V37.8597C101.291 42.9519 97.0518 47.1586 91.9203 47.1586H76.9721C71.8406 47.1586 67.6016 42.9519 67.6016 37.8597V23.2471C67.6016 18.1549 71.8406 13.9482 76.9721 13.9482H95.2669V0.885498H76.9721C64.7012 0.885498 54.4382 10.8486 54.4382 23.2471V37.8597C54.4382 50.0368 64.4781 60.2213 76.9721 60.2213H91.9203C98.1673 60.2213 103.745 57.7859 107.761 53.8006C111.777 57.7859 117.355 60.2213 123.602 60.2213H141.896V47.1586H123.602C118.47 47.1586 114.231 42.9519 114.231 37.8597V26.7896V23.2471C114.454 18.1549 118.693 13.9482 123.825 13.9482Z" fill="white"/>
<path d="M83.8882 23.9114H45.96V36.9741H83.8882V23.9114Z" fill="#80C1EE"/>
</g>
</g>
<defs>
<clipPath id="clip0">
<rect width="168" height="60" fill="white"/>
</clipPath>
<clipPath id="clip1">
<rect width="1005" height="60" fill="white" transform="translate(-837)"/>
</clipPath>
</defs>
</svg>
